<?xml version="1.0" standalone="no"?>
<!DOCTYPE svg PUBLIC "-//W3C//DTD SVG 20010904//EN"
 "http://www.w3.org/TR/2001/REC-SVG-20010904/DTD/svg10.dtd">
<svg version="1.0" xmlns="http://www.w3.org/2000/svg"
 width="256.000000pt" height="256.000000pt" viewBox="0 0 256.000000 256.000000"
 preserveAspectRatio="xMidYMid meet">
<metadata>
Created by potrace 1.14, written by Peter Selinger 2001-2017
</metadata>
<g transform="translate(0.000000,256.000000) scale(0.100000,-0.100000)"
fill="#000000" stroke="none">
<path d="M0 1280 l0 -1280 1280 0 1280 0 0 1280 0 1280 -1280 0 -1280 0 0
-1280z m2390 -15 l0 -1105 -1120 0 -1120 0 0 1105 0 1105 1120 0 1120 0 0
-1105z"/>
<path d="M380 1755 l0 -355 50 0 50 0 2 299 3 299 156 -296 157 -297 66 -3 66
-3 0 356 0 355 -50 0 -50 0 -2 -274 -3 -274 -144 274 -144 274 -78 0 -79 0 0
-355z"/>
<path d="M290 805 l0 -485 380 0 380 0 0 485 0 485 -380 0 -380 0 0 -485z"/>
</g>
</svg>
